<!DOCTYPE svg PUBLIC "-//W3C//DTD SVG 1.1//EN" "http://www.w3.org/Graphics/SVG/1.1/DTD/svg11.dtd">
<!-- Uploaded to: SVG Repo, www.svgrepo.com, Transformed by: SVG Repo Mixer Tools -->
<svg width="800px" height="800px" viewBox="0 0 24 24" fill="none" xmlns="http://www.w3.org/2000/svg">
<g id="SVGRepo_bgCarrier" stroke-width="0"/>
<g id="SVGRepo_tracerCarrier" stroke-linecap="round" stroke-linejoin="round"/>
<g id="SVGRepo_iconCarrier"> <path d="M10 9.5C10 10.3284 9.32843 11 8.5 11C7.67157 11 7 10.3284 7 9.5C7 8.67157 7.67157 8 8.5 8C9.32843 8 10 8.67157 10 9.5Z" fill="#f48fb1"/> <path d="M15.5 11C16.3284 11 17 10.3284 17 9.5C17 8.67157 16.3284 8 15.5 8C14.6716 8 14 8.67157 14 9.5C14 10.3284 14.6716 11 15.5 11Z" fill="#f48fb1"/> <path d="M16.4472 16.8944C15.9571 17.1395 15.362 16.9443 15.1115 16.4588C15.0977 16.4339 14.9095 16.1082 14.5003 15.7809C14.0398 15.4125 13.2571 15 12 15C10.7429 15 9.96016 15.4125 9.49969 15.7809C9.09051 16.1082 8.90234 16.4339 8.88853 16.4588C8.63799 16.9443 8.04288 17.1395 7.55278 16.8944C7.06499 16.6505 6.86147 16.0392 7.1061 15.5517C7.19214 15.3889 7.29262 15.2348 7.40312 15.0875C7.58593 14.8438 7.86188 14.5299 8.2503 14.2191C9.03983 13.5875 10.2571 13 12 13C13.7429 13 14.9602 13.5875 15.7497 14.2191C16.1381 14.5299 16.4141 14.8438 16.5969 15.0875C16.707 15.2343 16.812 15.3884 16.8944 15.5528C17.1414 16.0468 16.9412 16.6474 16.4472 16.8944Z" fill="#f48fb1"/> <path fill-rule="evenodd" clip-rule="evenodd" d="M20.9992 5.68421V1.50047C20.9992 0.441867 19.9309 -0.283213 18.9462 0.107037L15.348 1.53306C14.2923 1.19635 13.1674 1.01462 12 1.01462C10.8204 1.01462 9.68413 1.20017 8.61888 1.54367L5.05297 0.130458C4.06827 -0.259791 3 0.465289 3 1.52389V5.68535C1.73994 7.47351 1 9.65406 1 12.0073C1 18.0784 5.92487 23 12 23C18.0751 23 23 18.0784 23 12.0073C23 9.65355 22.2597 7.47258 20.9992 5.68421ZM18.9992 6.36359V2.23615C17.7709 2.72293 15.2922 3.63397 15.2922 3.63397C15.2922 3.63397 13.2846 3.02011 12 3.02011C10.7154 3.02011 8.68671 3.64971 8.68671 3.64971L5 2.25957V6.36459C3.75334 7.90712 3.00683 9.8701 3.00683 12.0073C3.00683 16.9708 7.03321 20.9945 12 20.9945C16.9668 20.9945 20.9932 16.9708 20.9932 12.0073C20.9932 9.86963 20.2463 7.90627 18.9992 6.36359Z" fill="#f48fb1"/> </g>
</svg>